<svg fill="#000000" xmlns="http://www.w3.org/2000/svg" viewBox="0 0 50 50" width="50px" height="50px"><path d="M 3 5 A 1.0001 1.0001 0 0 0 2 6 L 2 11 L 4 11 L 4 7 L 8 7 L 8 5 L 3 5 z M 12 5 L 12 7 L 18 7 L 18 5 L 12 5 z M 22 5 L 22 7 L 28 7 L 28 5 L 22 5 z M 32 5 L 32 7 L 38 7 L 38 5 L 32 5 z M 42 5 L 42 7 L 46 7 L 46 11 L 48 11 L 48 6 A 1.0001 1.0001 0 0 0 47 5 L 42 5 z M 18 13 L 11 33 L 13 33 L 14.75 28 L 23.25 28 L 25 33 L 27 33 L 20 13 L 18 13 z M 2 15 L 2 21 L 4 21 L 4 15 L 2 15 z M 46 15 L 46 21 L 48 21 L 48 15 L 46 15 z M 19 15.857422 L 22.550781 26 L 15.449219 26 L 19 15.857422 z M 33.375 18 C 31.581 18 30.084 18.464219 29 18.949219 L 29 21.189453 C 29.806 20.717453 31.353 20 33.375 20 C 36.499017 20 36.976525 21.571987 36.996094 23.144531 C 36.699378 23.179012 36.362737 23.212554 36.027344 23.246094 C 34.456344 23.405094 32.500234 23.603172 31.365234 24.076172 C 29.194234 24.980172 28 26.552 28 28.5 C 28 30.329 29.051594 32.148672 31.308594 32.763672 L 33.078125 30.992188 C 33.051125 30.992187 33.028 31 33 31 C 30.292 31 30 29.252 30 28.5 C 30 27.105 31.160766 26.329828 32.134766 25.923828 C 32.995766 25.565828 34.863563 25.374328 36.226562 25.236328 C 36.517216 25.20687 36.752356 25.179659 37 25.152344 L 37 27.072266 L 37.558594 26.513672 C 37.987594 26.084672 38.481 25.767484 39 25.521484 L 39 23.25 C 39 19.864 37.002 18 33.375 18 z M 2 25 L 2 31 L 4 31 L 4 25 L 2 25 z M 46 25 L 46 27.644531 L 48 29.644531 L 48 25 L 46 25 z M 41.214844 27.005859 C 40.401086 27.005859 39.587747 27.314595 38.972656 27.929688 L 27.929688 38.972656 C 26.699504 40.202839 26.699503 42.226849 27.929688 43.457031 L 33.542969 49.072266 C 34.773151 50.302448 36.799115 50.302448 38.029297 49.072266 L 49.072266 38.029297 C 50.302448 36.799115 50.302448 34.773151 49.072266 33.542969 L 43.457031 27.929688 C 42.84194 27.314596 42.028602 27.005859 41.214844 27.005859 z M 41.214844 28.994141 C 41.512586 28.994141 41.81006 29.110841 42.042969 29.34375 L 47.658203 34.958984 C 48.124021 35.424802 48.124021 36.149417 47.658203 36.615234 L 42.84375 41.429688 L 35.572266 34.158203 L 40.386719 29.34375 C 40.619628 29.110841 40.917102 28.994141 41.214844 28.994141 z M 42 31 A 1 1 0 0 0 41 32 A 1 1 0 0 0 42 33 A 1 1 0 0 0 43 32 A 1 1 0 0 0 42 31 z M 39 34 A 1 1 0 0 0 38 35 A 1 1 0 0 0 39 36 A 1 1 0 0 0 40 35 A 1 1 0 0 0 39 34 z M 45 34 A 1 1 0 0 0 44 35 A 1 1 0 0 0 45 36 A 1 1 0 0 0 46 35 A 1 1 0 0 0 45 34 z M 2 35 L 2 40 A 1.0001 1.0001 0 0 0 3 41 L 8 41 L 8 39 L 4 39 L 4 35 L 2 35 z M 34.158203 35.572266 L 41.429688 42.84375 L 36.615234 47.658203 C 36.149417 48.124021 35.424802 48.124021 34.958984 47.658203 L 29.34375 42.042969 C 28.877932 41.577151 28.877932 40.852536 29.34375 40.386719 L 34.158203 35.572266 z M 42 37 A 1 1 0 0 0 41 38 A 1 1 0 0 0 42 39 A 1 1 0 0 0 43 38 A 1 1 0 0 0 42 37 z M 12 39 L 12 41 L 18 41 L 18 39 L 12 39 z M 22 39 L 22 41 L 25.023438 41 C 25.051437 40.312 25.220484 39.635 25.521484 39 L 22 39 z"/></svg>