<svg fill="#000000" xmlns="http://www.w3.org/2000/svg" viewBox="0 0 50 50" width="50px" height="50px"><path d="M 10 2 A 1.0001 1.0001 0 0 0 9 3 L 9 47 A 1.0001 1.0001 0 0 0 10 48 L 18 48 A 1.0001 1.0001 0 0 0 19 47.001953 L 19.029297 28.953125 L 31 28.996094 L 31 47 A 1.0001 1.0001 0 0 0 32 48 L 40 48 A 1.0001 1.0001 0 0 0 41 47 L 41 3 A 1.0001 1.0001 0 0 0 40 2 L 32 2 A 1.0001 1.0001 0 0 0 31 3 L 31 20.005859 L 19 20 L 19 3 A 1.0001 1.0001 0 0 0 18 2 L 10 2 z M 11 4 L 17 4 L 17 21 A 1.0001 1.0001 0 0 0 18 22 L 32 22.005859 A 1.0001 1.0001 0 0 0 33 21.005859 L 33 4 L 39 4 L 39 46 L 33 46 L 33 28 A 1.0001 1.0001 0 0 0 32.003906 27 L 18.035156 26.949219 A 1.0001 1.0001 0 0 0 17.03125 27.949219 L 17.001953 46 L 11 46 L 11 4 z"/></svg>