<svg fill="#000000" xmlns="http://www.w3.org/2000/svg" viewBox="0 0 50 50" width="50px" height="50px"><path d="M 35.59375 14.53125 C 33.328125 14.53125 31.390625 15.128906 29.96875 16.3125 C 28.546875 17.496094 27.722656 19.242188 27.6875 21.25 C 27.679688 21.519531 27.78125 21.78125 27.96875 21.976563 C 28.15625 22.171875 28.417969 22.28125 28.6875 22.28125 L 32.8125 22.28125 C 33.351563 22.28125 33.796875 21.851563 33.8125 21.3125 C 33.828125 20.851563 33.992188 20.570313 34.25 20.34375 C 34.507813 20.117188 34.914063 19.9375 35.5 19.9375 C 36.128906 19.9375 36.53125 20.101563 36.75 20.28125 C 36.96875 20.460938 37.09375 20.660156 37.09375 21.0625 C 37.09375 21.460938 36.976563 21.679688 36.75 21.875 C 36.523438 22.070313 36.109375 22.21875 35.53125 22.21875 L 34.0625 22.21875 C 34.042969 22.21875 34.019531 22.21875 34 22.21875 L 34 23.21875 L 33 23.21875 L 33 26.375 C 33 26.925781 33.449219 27.375 34 27.375 L 35.53125 27.375 C 36.242188 27.375 36.714844 27.546875 36.96875 27.75 C 37.222656 27.953125 37.34375 28.15625 37.34375 28.59375 C 37.34375 28.988281 37.207031 29.246094 36.9375 29.46875 C 36.667969 29.691406 36.214844 29.875 35.59375 29.875 C 34.890625 29.875 34.40625 29.714844 34.125 29.5 C 33.84375 29.285156 33.707031 29.050781 33.6875 28.625 C 33.671875 28.085938 33.226563 27.65625 32.6875 27.65625 L 28.34375 27.65625 C 28.066406 27.65625 27.804688 27.769531 27.613281 27.972656 C 27.425781 28.171875 27.328125 28.441406 27.34375 28.71875 C 27.4375 30.738281 28.316406 32.46875 29.78125 33.65625 C 31.246094 34.84375 33.25 35.46875 35.53125 35.46875 C 37.902344 35.46875 39.96875 34.882813 41.5 33.75 C 43.03125 32.617188 44 30.910156 44 28.96875 C 44 27 42.917969 25.398438 41.28125 24.5 C 42.523438 23.558594 43.34375 22.109375 43.34375 20.4375 C 43.34375 18.671875 42.460938 17.117188 41.0625 16.09375 C 39.664063 15.070313 37.757813 14.53125 35.59375 14.53125 Z M 6.8125 15 C 6.335938 15.089844 5.992188 15.511719 6 16 L 6 34 C 6 34.550781 6.449219 35 7 35 L 11.5 35 C 12.050781 35 12.5 34.550781 12.5 34 L 12.5 27.75 L 17.53125 27.75 L 17.53125 34 C 17.53125 34.550781 17.980469 35 18.53125 35 L 23 35 C 23.550781 35 24 34.550781 24 34 L 24 16 C 24 15.449219 23.550781 15 23 15 L 18.53125 15 C 17.980469 15 17.53125 15.449219 17.53125 16 L 17.53125 22.0625 L 12.5 22.0625 L 12.5 16 C 12.5 15.449219 12.050781 15 11.5 15 L 7 15 C 6.96875 15 6.9375 15 6.90625 15 C 6.875 15 6.84375 15 6.8125 15 Z M 35.59375 16.53125 C 37.421875 16.53125 38.90625 16.980469 39.875 17.6875 C 40.84375 18.394531 41.34375 19.300781 41.34375 20.4375 C 41.34375 22.0625 40.335938 23.238281 38.75 23.53125 C 38.285156 23.621094 37.945313 24.023438 37.9375 24.5 L 37.9375 24.75 C 37.933594 25.269531 38.328125 25.703125 38.84375 25.75 C 40.9375 25.96875 42 27.105469 42 28.96875 C 42 30.28125 41.414063 31.308594 40.3125 32.125 C 39.210938 32.941406 37.558594 33.46875 35.53125 33.46875 C 33.613281 33.46875 32.101563 32.96875 31.0625 32.125 C 30.289063 31.5 29.84375 30.640625 29.59375 29.65625 L 31.96875 29.65625 C 32.171875 30.210938 32.441406 30.707031 32.90625 31.0625 C 33.628906 31.613281 34.5625 31.875 35.59375 31.875 C 36.59375 31.875 37.523438 31.605469 38.21875 31.03125 C 38.914063 30.457031 39.34375 29.542969 39.34375 28.59375 C 39.34375 27.644531 38.929688 26.753906 38.21875 26.1875 C 37.507813 25.621094 36.566406 25.375 35.53125 25.375 L 35 25.375 L 35 24.21875 L 35.53125 24.21875 C 36.484375 24.21875 37.371094 23.96875 38.03125 23.40625 C 38.691406 22.84375 39.09375 21.972656 39.09375 21.0625 C 39.09375 20.15625 38.703125 19.269531 38.03125 18.71875 C 37.359375 18.167969 36.464844 17.9375 35.5 17.9375 C 34.515625 17.9375 33.613281 18.21875 32.9375 18.8125 C 32.503906 19.191406 32.246094 19.726563 32.0625 20.28125 L 29.90625 20.28125 C 30.121094 19.308594 30.519531 18.449219 31.25 17.84375 C 32.234375 17.023438 33.683594 16.53125 35.59375 16.53125 Z M 8 17 L 10.5 17 L 10.5 23.0625 C 10.5 23.613281 10.949219 24.0625 11.5 24.0625 L 18.53125 24.0625 C 19.082031 24.0625 19.53125 23.613281 19.53125 23.0625 L 19.53125 17 L 22 17 L 22 33 L 19.53125 33 L 19.53125 26.75 C 19.53125 26.199219 19.082031 25.75 18.53125 25.75 L 11.5 25.75 C 10.949219 25.75 10.5 26.199219 10.5 26.75 L 10.5 33 L 8 33 Z"/></svg>