<svg fill="#000000" xmlns="http://www.w3.org/2000/svg" viewBox="0 0 50 50" width="50px" height="50px"><path d="M 1.8125 10 C 1.335938 10.089844 0.992188 10.511719 1 11 L 1 39 C 1 39.550781 1.449219 40 2 40 L 9.28125 40 C 9.832031 40 10.28125 39.550781 10.28125 39 L 10.28125 28.71875 L 19.71875 28.71875 L 19.71875 39 C 19.71875 39.550781 20.167969 40 20.71875 40 L 28 40 C 28.550781 40 29 39.550781 29 39 L 29 11 C 29 10.449219 28.550781 10 28 10 L 20.71875 10 C 20.167969 10 19.71875 10.449219 19.71875 11 L 19.71875 20.96875 L 10.28125 20.96875 L 10.28125 11 C 10.28125 10.449219 9.832031 10 9.28125 10 L 2 10 C 1.96875 10 1.9375 10 1.90625 10 C 1.875 10 1.84375 10 1.8125 10 Z M 40.65625 10 C 40.5 10.015625 40.351563 10.070313 40.21875 10.15625 L 32.96875 15.03125 C 32.699219 15.214844 32.535156 15.519531 32.53125 15.84375 L 32.53125 21.96875 C 32.523438 22.34375 32.726563 22.6875 33.054688 22.867188 C 33.382813 23.042969 33.785156 23.023438 34.09375 22.8125 L 39.78125 19.03125 L 39.78125 39 C 39.78125 39.550781 40.230469 40 40.78125 40 L 48 40 C 48.550781 40 49 39.550781 49 39 L 49 11 C 49 10.449219 48.550781 10 48 10 L 40.78125 10 C 40.738281 9.996094 40.699219 9.996094 40.65625 10 Z M 3 12 L 8.28125 12 L 8.28125 21.96875 C 8.28125 22.519531 8.730469 22.96875 9.28125 22.96875 L 20.71875 22.96875 C 21.269531 22.96875 21.71875 22.519531 21.71875 21.96875 L 21.71875 12 L 27 12 L 27 38 L 21.71875 38 L 21.71875 27.71875 C 21.71875 27.167969 21.269531 26.71875 20.71875 26.71875 L 9.28125 26.71875 C 8.730469 26.71875 8.28125 27.167969 8.28125 27.71875 L 8.28125 38 L 3 38 Z M 41.09375 12 L 47 12 L 47 38 L 41.78125 38 L 41.78125 17.4375 C 41.78125 16.886719 41.332031 16.4375 40.78125 16.4375 L 40.40625 16.4375 C 40.207031 16.433594 40.011719 16.488281 39.84375 16.59375 L 34.53125 20.125 L 34.53125 16.40625 Z"/></svg>