<svg fill="#000000" xmlns="http://www.w3.org/2000/svg" viewBox="0 0 50 50" width="50px" height="50px"><path d="M 3.8125 13 C 3.335938 13.089844 2.992188 13.511719 3 14 L 3 36 C 3 36.550781 3.449219 37 4 37 L 9.625 37 C 10.175781 37 10.625 36.550781 10.625 36 L 10.625 28.125 L 17.40625 28.125 L 17.40625 36 C 17.40625 36.550781 17.855469 37 18.40625 37 L 24 37 C 24.550781 37 25 36.550781 25 36 L 25 14 C 25 13.449219 24.550781 13 24 13 L 18.40625 13 C 17.855469 13 17.40625 13.449219 17.40625 14 L 17.40625 21.625 L 10.625 21.625 L 10.625 14 C 10.625 13.449219 10.175781 13 9.625 13 L 4 13 C 3.96875 13 3.9375 13 3.90625 13 C 3.875 13 3.84375 13 3.8125 13 Z M 37.71875 13 C 35.046875 13 32.722656 13.78125 31.0625 15.21875 C 29.402344 16.65625 28.4375 18.734375 28.4375 21.125 L 28.4375 21.21875 C 28.4375 21.769531 28.886719 22.21875 29.4375 22.21875 L 34.40625 22.21875 C 34.957031 22.21875 35.40625 21.769531 35.40625 21.21875 L 35.40625 21.125 C 35.40625 19.839844 36.148438 19.125 37.53125 19.125 C 38.210938 19.125 38.671875 19.292969 38.96875 19.5625 C 39.265625 19.832031 39.4375 20.207031 39.4375 20.75 C 39.4375 21.167969 39.359375 21.46875 38.84375 22.15625 C 38.328125 22.84375 37.398438 23.808594 35.84375 25.25 C 35.832031 25.261719 35.824219 25.269531 35.8125 25.28125 L 29.0625 31.625 C 28.855469 31.820313 28.742188 32.09375 28.75 32.375 L 28.75 36 C 28.75 36.550781 29.199219 37 29.75 37 L 46 37 C 46.550781 37 47 36.550781 47 36 L 47 31.75 C 47 31.199219 46.550781 30.75 46 30.75 L 39.28125 30.75 L 41.1875 28.96875 C 43.113281 27.25 44.472656 25.835938 45.375 24.46875 C 46.277344 23.101563 46.6875 21.726563 46.6875 20.34375 C 46.6875 18.167969 45.738281 16.257813 44.125 14.96875 C 42.511719 13.679688 40.289063 13 37.71875 13 Z M 5 15 L 8.625 15 L 8.625 22.625 C 8.625 23.175781 9.074219 23.625 9.625 23.625 L 18.40625 23.625 C 18.957031 23.625 19.40625 23.175781 19.40625 22.625 L 19.40625 15 L 23 15 L 23 35 L 19.40625 35 L 19.40625 27.125 C 19.40625 26.574219 18.957031 26.125 18.40625 26.125 L 9.625 26.125 C 9.074219 26.125 8.625 26.574219 8.625 27.125 L 8.625 35 L 5 35 Z M 37.71875 15 C 39.929688 15 41.695313 15.589844 42.875 16.53125 C 44.054688 17.472656 44.6875 18.730469 44.6875 20.34375 C 44.6875 21.335938 44.429688 22.21875 43.6875 23.34375 C 42.945313 24.46875 41.707031 25.804688 39.84375 27.46875 C 39.84375 27.480469 39.84375 27.488281 39.84375 27.5 L 36.3125 30.75 C 36.113281 30.9375 36.003906 31.195313 36 31.46875 L 36 31.75 C 36 32.300781 36.449219 32.75 37 32.75 L 45 32.75 L 45 35 L 30.75 35 L 30.75 32.8125 L 37.1875 26.71875 C 38.769531 25.25 39.800781 24.238281 40.46875 23.34375 C 41.136719 22.449219 41.4375 21.59375 41.4375 20.75 C 41.4375 19.71875 41.03125 18.746094 40.3125 18.09375 C 39.59375 17.441406 38.613281 17.125 37.53125 17.125 C 35.574219 17.125 34.019531 18.4375 33.59375 20.21875 L 30.625 20.21875 C 30.828125 18.804688 31.363281 17.59375 32.375 16.71875 C 33.613281 15.648438 35.433594 15 37.71875 15 Z"/></svg>