<svg fill="#000000" xmlns="http://www.w3.org/2000/svg" viewBox="0 0 50 50" width="50px" height="50px"><path d="M 25.96875 4.28125 C 25.53125 4.328125 25.175781 4.660156 25.09375 5.09375 L 17 43.65625 C 16.945313 43.945313 17.019531 44.246094 17.207031 44.476563 C 17.394531 44.703125 17.671875 44.839844 17.96875 44.84375 L 23.09375 44.84375 C 23.570313 44.855469 23.988281 44.527344 24.09375 44.0625 L 32.1875 5.5 C 32.253906 5.203125 32.183594 4.894531 31.996094 4.660156 C 31.804688 4.421875 31.519531 4.285156 31.21875 4.28125 L 26.0625 4.28125 C 26.03125 4.28125 26 4.28125 25.96875 4.28125 Z M 26.90625 6.28125 L 29.96875 6.28125 L 22.28125 42.84375 L 19.21875 42.84375 Z"/></svg>