<svg fill="#000000" xmlns="http://www.w3.org/2000/svg" viewBox="0 0 50 50" width="50px" height="50px"><path d="M 39.851563 2 C 39.574219 2.003906 39.308594 2.125 39.125 2.332031 C 38.738281 2.484375 38.308594 2.5625 38.027344 2.835938 C 37.554688 3.285156 37.152344 3.835938 36.71875 4.464844 C 35.859375 5.71875 34.894531 7.285156 33.515625 8.835938 C 30.761719 11.933594 26.453125 15 18 15 C 17.960938 15 17.925781 15 17.886719 15.003906 L 7 15.003906 C 4.253906 15.003906 2.007813 17.253906 2.007813 20 L 2.007813 25 C 2.007813 27.121094 3.355469 28.933594 5.234375 29.652344 C 5.289063 29.714844 5.351563 29.769531 5.421875 29.816406 C 5.75 30.046875 6.621094 31.613281 7.335938 34.1875 C 8.046875 36.765625 8.773438 40.332031 9.605469 44.675781 C 9.765625 45.511719 10.042969 46.351563 10.691406 47 C 11.339844 47.652344 12.304688 48 13.445313 48 L 16.78125 48 C 17.703125 48 18.539063 47.820313 19.15625 47.25 C 19.777344 46.683594 20 45.84375 20 45 C 20 43.242188 18.953125 42.03125 17.792969 40.875 C 17.976563 41.058594 17.722656 40.71875 17.601563 40.140625 C 17.480469 39.558594 17.371094 38.71875 17.28125 37.667969 C 17.117188 35.777344 17.035156 33.117188 17.015625 29.996094 L 17.828125 29.996094 C 17.929688 30.011719 18.03125 30.011719 18.132813 30 C 18.144531 30 18.15625 30 18.167969 30 C 26.65625 30 30.925781 33.289063 33.664063 36.632813 C 35.03125 38.304688 35.988281 40 36.84375 41.347656 C 37.269531 42.023438 37.664063 42.613281 38.136719 43.097656 C 38.609375 43.582031 39.234375 44 40 44 L 40.074219 44 C 40.464844 44 40.859375 43.792969 41.105469 43.546875 C 41.347656 43.296875 41.503906 43.011719 41.640625 42.671875 C 41.921875 41.992188 42.136719 41.046875 42.332031 39.578125 C 42.640625 37.269531 42.871094 33.605469 42.957031 28 L 43.453125 28 C 45.757813 28 47.660156 26.25 47.875 23.972656 C 47.925781 23.851563 47.953125 23.71875 47.953125 23.585938 C 47.953125 21.113281 45.957031 19 43.453125 19 L 42.957031 19 C 42.867188 12.847656 42.585938 8.839844 42.207031 6.398438 C 41.980469 4.925781 41.738281 3.976563 41.433594 3.296875 C 41.28125 2.960938 41.117188 2.679688 40.871094 2.4375 C 40.625 2.199219 40.246094 2 39.851563 2 Z M 39.613281 4.148438 C 39.789063 4.539063 40.023438 5.34375 40.234375 6.703125 C 40.65625 9.460938 41 14.429688 41 23 C 41 31.574219 40.71875 36.550781 40.347656 39.3125 C 40.167969 40.671875 39.960938 41.46875 39.800781 41.863281 C 39.734375 41.828125 39.71875 41.851563 39.566406 41.699219 C 39.292969 41.417969 38.933594 40.914063 38.53125 40.277344 C 37.722656 39 36.707031 37.195313 35.210938 35.367188 C 32.308594 31.824219 27.492188 28.242188 18.996094 28.019531 L 18.996094 16.976563 C 27.320313 16.730469 32.101563 13.4375 35.011719 10.164063 C 36.523438 8.460938 37.554688 6.78125 38.371094 5.597656 C 38.777344 5.007813 39.132813 4.542969 39.40625 4.28125 C 39.53125 4.160156 39.546875 4.1875 39.613281 4.148438 Z M 7 16.996094 L 17.003906 16.996094 L 17.003906 28.003906 L 16.191406 28.003906 C 16.125 27.992188 16.054688 27.984375 15.984375 27.984375 C 15.925781 27.988281 15.863281 27.992188 15.808594 28.003906 L 7 28.003906 C 5.328125 28.003906 3.992188 26.671875 3.992188 25 L 3.992188 20 C 3.992188 18.328125 5.328125 16.996094 7 16.996094 Z M 42.980469 21 L 43.453125 21 C 44.816406 21 45.953125 22.195313 45.953125 23.585938 C 45.953125 24.976563 44.875 26 43.453125 26 L 42.972656 26 C 42.984375 25.003906 43 24.113281 43 23 C 43 22.257813 42.984375 21.6875 42.980469 21 Z M 8.007813 29.996094 L 15.015625 29.996094 C 15.03125 33.15625 15.117188 35.855469 15.285156 37.835938 C 15.378906 38.9375 15.496094 39.835938 15.644531 40.546875 C 15.792969 41.257813 15.847656 41.757813 16.378906 42.289063 C 17.488281 43.394531 18 43.992188 18 45 C 18 45.53125 17.898438 45.691406 17.804688 45.777344 C 17.710938 45.863281 17.4375 46 16.78125 46 L 13.445313 46 C 12.664063 46 12.34375 45.828125 12.109375 45.59375 C 11.878906 45.359375 11.691406 44.941406 11.570313 44.300781 C 10.738281 39.941406 10.007813 36.351563 9.261719 33.65625 C 8.847656 32.167969 8.480469 30.953125 8.007813 29.996094 Z"/></svg>