<svg xmlns="http://www.w3.org/2000/svg" viewBox="0 0 50 50"><rect width="50" height="50" rx="8" style="fill:#1592e6"/><path d="M24.43,4a.77.77,0,0,0-.28.12L17,8.1l-.08.06,0,0,0,0s0,0-.05,0a.76.76,0,0,0-.11.14l0,.06,0,0,0,0v0l0,.06v.08a.36.36,0,0,0,0,.11.49.49,0,0,0,0,.17v2.93l-8.5,4.73a.9.9,0,0,0-.45.78v7.72l-3,1.67-.11.06-.08.05,0,0,0,0,0,.06s0,0-.06.05l-.06.09a.08.08,0,0,0,0,.05l0,.06,0,0v0l0,.06v.08l0,.12v8a.9.9,0,0,0,.45.78l7.1,3.94.06,0,0,0h.05l0,0,0,0h.09l0,0h.28l.22,0h0l0,0,0,0,.09-.06.05,0,1.48-.82,10,5.57a.89.89,0,0,0,.89,0l10-5.57,1.57.87.08.06h.06l0,0,.06,0h.08l0,0h.28l.23,0h0l0,0,.06,0,.08-.06.06,0,7-3.89a.9.9,0,0,0,.45-.78V28.15a.91.91,0,0,0,.09-1,.9.9,0,0,0-.9-.45l-2.77-1.53V17.44a.88.88,0,0,0-.45-.78l-8.49-4.73V9.36a.9.9,0,0,0-.81-1.45L25,4.14A.89.89,0,0,0,24.51,4ZM24.6,6l5.31,2.94L24.6,11.77,19.29,8.89ZM18.34,10.4l5.36,2.9v6l-5.36-3v-3.6a1,1,0,0,0,0-.53Zm12.52,0v1.79a.85.85,0,0,0,0,.5v3.63l-5.37,3v-6ZM16.55,14v2.85a.87.87,0,0,0,.44.79l7.16,4,0,0h.05l0,0,.06,0h.08l0,0h.28a.79.79,0,0,0,.22-.06h0l0,0,.05,0,.09-.06.05,0,7-3.88a.9.9,0,0,0,.45-.79V14l7.15,4v6.18l-2.23-1.23a.89.89,0,0,0-.53-.11H37a1,1,0,0,0-.28.11l-7.15,4-.06,0-.06,0,0,0-.06.06a.92.92,0,0,0-.17.25l0,0v0a.09.09,0,0,0,0,.06.64.64,0,0,0,0,.2v8a.9.9,0,0,0,.45.78l3.69,2L24.6,43.24,16,38.46l3.69-2a.87.87,0,0,0,.44-.78V28.15a.9.9,0,0,0-.81-1.46l-6.79-3.77a.88.88,0,0,0-.53-.11h-.08a.86.86,0,0,0-.28.11L9.39,24.15V18ZM12.07,24.74l5.32,2.93-5.32,2.88L6.76,27.67l2-1.12.16-.08.06,0,0,0,.05,0Zm25,0,3.07,1.7.17.09,2.07,1.14-5.31,2.88-5.31-2.88ZM5.81,29.18l5.37,2.91v6l-5.37-3Zm12.53,0v5.93l-4.53,2.51h0l-.06,0-.16.08-.06.06-.53.28v-6Zm12.52,0,5.37,2.91v6l-.62-.34,0,0,0,0-.09,0-4.58-2.54Zm12.52,0v5.93l-5.37,3v-6Z" style="fill:#fff"/></svg>