<svg fill="#000000" xmlns="http://www.w3.org/2000/svg" viewBox="0 0 50 50" width="50px" height="50px"><path d="M 9 19 C 5.699219 19 3 21.699219 3 25 C 3 28.300781 5.699219 31 9 31 C 12.300781 31 15 28.300781 15 25 C 15 21.699219 12.300781 19 9 19 Z M 25 19 C 21.699219 19 19 21.699219 19 25 C 19 28.300781 21.699219 31 25 31 C 28.300781 31 31 28.300781 31 25 C 31 21.699219 28.300781 19 25 19 Z M 41 19 C 37.699219 19 35 21.699219 35 25 C 35 28.300781 37.699219 31 41 31 C 44.300781 31 47 28.300781 47 25 C 47 21.699219 44.300781 19 41 19 Z M 9 21 C 11.222656 21 13 22.777344 13 25 C 13 27.222656 11.222656 29 9 29 C 6.777344 29 5 27.222656 5 25 C 5 22.777344 6.777344 21 9 21 Z M 25 21 C 27.222656 21 29 22.777344 29 25 C 29 27.222656 27.222656 29 25 29 C 22.777344 29 21 27.222656 21 25 C 21 22.777344 22.777344 21 25 21 Z M 41 21 C 43.222656 21 45 22.777344 45 25 C 45 27.222656 43.222656 29 41 29 C 38.777344 29 37 27.222656 37 25 C 37 22.777344 38.777344 21 41 21 Z"/></svg>