<svg xmlns="http://www.w3.org/2000/svg" viewBox="0 0 50 50"><rect width="50" height="50" style="fill:#1592e6;opacity:0.22"/><path d="M25,7.32a7.76,7.76,0,0,0-7.77,7.77v4.67A7.78,7.78,0,0,0,20.34,26v3.53c0,.08,0,.15-.22.34a5.3,5.3,0,0,1-1.05.68c-.95.48-2.34,1-3.74,1.65a12.67,12.67,0,0,0-4,2.79,7.31,7.31,0,0,0-1.9,5v.78h31.1V40a7.35,7.35,0,0,0-1.9-5,12.44,12.44,0,0,0-4-2.77c-1.4-.67-2.79-1.18-3.74-1.65a4.7,4.7,0,0,1-1.05-.66c-.2-.19-.22-.27-.22-.36V26a7.78,7.78,0,0,0,3.11-6.19V15.09A7.76,7.76,0,0,0,25,7.32Zm0,1.55a6.18,6.18,0,0,1,6.22,6.22v4.67a6.26,6.26,0,0,1-2.77,5.17l-.34.24v4.31a2.11,2.11,0,0,0,.7,1.5,5.64,5.64,0,0,0,1.44.92c1.09.55,2.42,1,3.74,1.66a11.22,11.22,0,0,1,3.5,2.4,5.7,5.7,0,0,1,1.36,3.23H11.15A5.7,5.7,0,0,1,12.51,36,11.3,11.3,0,0,1,16,33.56c1.32-.64,2.66-1.14,3.74-1.68A6.46,6.46,0,0,0,21.19,31a2.08,2.08,0,0,0,.7-1.48V25.17l-.34-.24a6.26,6.26,0,0,1-2.77-5.17V15.09A6.18,6.18,0,0,1,25,8.87Z" style="fill:#fff;opacity:0.79"/></svg>