<svg fill="#000000" xmlns="http://www.w3.org/2000/svg" viewBox="0 0 50 50" width="50px" height="50px"><path d="M 9.8125 6 C 9.335938 6.089844 8.992188 6.511719 9 7 L 9 11 C 9 11.550781 9.449219 12 10 12 L 22 12 L 22 25 L 11 25 L 11 27 L 39 27 L 39 25 L 28 25 L 28 12 L 40 12 C 40.550781 12 41 11.550781 41 11 L 41 7 C 41 6.449219 40.550781 6 40 6 L 10 6 C 9.96875 6 9.9375 6 9.90625 6 C 9.875 6 9.84375 6 9.8125 6 Z M 11 8 L 39 8 L 39 10 L 27 10 C 26.449219 10 26 10.449219 26 11 L 26 25 L 24 25 L 24 11 C 24 10.449219 23.550781 10 23 10 L 11 10 Z M 22 28 L 22 43 C 22 43.550781 22.449219 44 23 44 L 27 44 C 27.550781 44 28 43.550781 28 43 L 28 28 L 26 28 L 26 42 L 24 42 L 24 28 Z"/></svg>