<svg fill="#000000" xmlns="http://www.w3.org/2000/svg" viewBox="0 0 50 50" width="50px" height="50px"><path d="M 9.8125 6 C 9.335938 6.089844 8.992188 6.511719 9 7 L 9 28 C 9 36.839844 16.160156 44 25 44 C 33.839844 44 41 36.839844 41 28 L 41 7 C 41 6.449219 40.550781 6 40 6 L 36 6 C 35.449219 6 35 6.449219 35 7 L 35 28 C 35 33.566406 30.566406 38 25 38 C 19.433594 38 15 33.566406 15 28 L 15 7 C 15 6.449219 14.550781 6 14 6 L 10 6 C 9.96875 6 9.9375 6 9.90625 6 C 9.875 6 9.84375 6 9.8125 6 Z M 11 8 L 13 8 L 13 28 C 13 34.636719 18.363281 40 25 40 C 31.636719 40 37 34.636719 37 28 L 37 8 L 39 8 L 39 28 C 39 35.761719 32.761719 42 25 42 C 17.238281 42 11 35.761719 11 28 Z M 10.8125 47 C 10.261719 47.050781 9.855469 47.542969 9.90625 48.09375 C 9.957031 48.644531 10.449219 49.050781 11 49 L 39 49 C 39.359375 49.003906 39.695313 48.816406 39.878906 48.503906 C 40.058594 48.191406 40.058594 47.808594 39.878906 47.496094 C 39.695313 47.183594 39.359375 46.996094 39 47 L 11 47 C 10.96875 47 10.9375 47 10.90625 47 C 10.875 47 10.84375 47 10.8125 47 Z"/></svg>